<svg xmlns="http://www.w3.org/2000/svg" viewBox="0 -0.5 32 32" shape-rendering="crispEdges">
<metadata>Made with Pixels to Svg https://codepen.io/shshaw/pen/XbxvNj</metadata>
<path stroke="#423934" d="M10 2h4M9 3h1M14 3h2M8 4h1M16 4h2M8 5h1M18 5h2M8 6h1M20 6h2M7 7h1M22 7h2M7 8h1M24 8h2M7 9h1M26 9h2M6 10h1M28 10h1M6 11h1M28 11h1M6 12h1M28 12h1M5 13h1M27 13h1M5 14h1M27 14h1M5 15h1M26 15h1M4 16h1M26 16h1M4 17h1M25 17h1M3 18h1M25 18h1M3 19h1M24 19h1M3 20h1M24 20h1M2 21h1M23 21h1M2 22h1M23 22h1M2 23h1M22 23h1M3 24h2M22 24h1M5 25h3M21 25h1M8 26h2M21 26h1M10 27h2M21 27h1M12 28h2M20 28h1M14 29h2M20 29h1M16 30h4" />
<path stroke="#a08662" d="M10 3h1M13 3h1M9 4h1M11 4h1M15 4h1M11 5h1M17 5h1M12 6h1M17 6h1M19 6h1M8 7h2M12 7h1M16 7h1M21 7h1M8 8h3M16 8h1M22 8h2M8 9h1M14 9h2M21 9h1M25 9h1M8 10h1M14 10h2M21 10h1M27 10h1M17 11h1M20 11h1M18 12h1M20 12h1M27 12h1M18 13h1M21 13h1M6 14h1M20 14h2M26 14h1M6 15h2M19 15h1M5 16h2M25 16h1M6 17h2M22 17h1M4 18h1M8 18h2M23 18h2M10 19h1M10 20h1M23 20h1M3 21h1M9 21h1M19 21h1M19 22h1M22 22h1M3 23h1M18 23h2M5 24h1M20 24h2M20 27h1M19 29h1" />
<path stroke="#c7b08b" d="M11 3h2M10 4h1M12 4h3M9 5h2M12 5h5M9 6h3M13 6h4M18 6h1M10 7h2M13 7h3M17 7h4M11 8h5M17 8h5M16 9h5M22 9h3M16 10h5M22 10h5M18 11h2M21 11h7M19 12h1M21 12h6M22 13h5M7 14h2M23 14h3M8 15h1M23 15h3M7 16h2M23 16h2M5 17h1M8 17h1M23 17h2M5 18h3M22 18h1M4 19h6M21 19h3M4 20h6M21 20h2M4 21h5M10 21h1M20 21h3M3 22h5M10 22h2M20 22h2M4 23h3M20 23h2M16 24h4M17 25h4M17 26h4M18 27h2M18 28h2M18 29h1" />
<path stroke="#99a739" d="M9 9h1M13 9h1M15 14h3M14 15h4M14 16h1M16 16h2M14 17h3M15 18h2M20 20h1M18 22h1" />
<path stroke="#c8d45d" d="M10 9h3M9 10h5M10 11h2M13 11h4M10 12h8M11 13h2M16 13h2M19 13h2M9 14h2M12 14h1M18 14h2M22 14h1M9 15h1M12 15h2M18 15h1M20 15h3M9 16h1M11 16h3M19 16h2M22 16h1M9 17h2M12 17h2M19 17h3M10 18h5M18 18h4M11 19h2M14 19h7M12 20h1M15 20h5M13 21h1M15 21h4M14 22h2M17 22h1M15 23h3" />
<path stroke="#c7cfdd" d="M7 10h1M9 11h1M6 13h2M10 13h1" />
<path stroke="#dae0ea" d="M7 11h2M7 12h3M8 13h2" />
<path stroke="#272727" d="M12 11h1M15 16h1M21 16h1M16 22h1" />
<path stroke="#bd6a62" d="M13 13h3M11 14h1M13 14h2M10 15h2M10 16h1M18 16h1M11 17h1M17 17h2M17 18h1M13 19h1M13 20h2M14 21h1" />
<path stroke="#86cf4a" d="M11 20h1M11 21h2M8 22h2M12 22h2M7 23h4M12 23h2M7 24h2M12 24h3M11 25h6M11 26h4M16 26h1M13 27h1M16 27h2M16 28h2M17 29h1" />
<path stroke="#54903a" d="M11 23h1M14 23h1M6 24h1M9 24h3M15 24h1M8 25h3M10 26h1M15 26h1M12 27h1M14 27h2M14 28h2M16 29h1" />
</svg>