<svg xmlns="http://www.w3.org/2000/svg" viewBox="0 -0.5 32 32" shape-rendering="crispEdges">
<metadata>Made with Pixels to Svg https://codepen.io/shshaw/pen/XbxvNj</metadata>
<path stroke="#1c121c" d="M8 12h4M20 12h4M8 13h1M12 13h1M19 13h1M23 13h1M8 14h1M13 14h2M17 14h2M23 14h1M8 15h1M14 15h1M17 15h1M23 15h1M6 16h2M14 16h1M17 16h1M24 16h2M5 17h1M14 17h1M17 17h1M26 17h1M4 18h1M14 18h1M17 18h1M27 18h1M4 19h1M14 19h1M17 19h1M27 19h1M4 20h1M11 20h4M17 20h4M27 20h1M4 21h7M21 21h7" />
<path stroke="#ffee83" d="M9 13h3M20 13h3M12 14h1M19 14h1M12 15h1M19 15h1" />
<path stroke="#cf752b" d="M9 14h2M21 14h2M9 15h3M20 15h3M8 16h4M20 16h4M6 17h5M21 17h5M13 18h1M18 18h1M10 19h4M18 19h4M5 20h6M21 20h6" />
<path stroke="#f0b541" d="M11 14h1M20 14h1M13 15h1M18 15h1M12 16h2M18 16h2M11 17h3M18 17h3M5 18h8M19 18h8M5 19h5M22 19h5" />
</svg>