<svg xmlns="http://www.w3.org/2000/svg" viewBox="0 -0.5 32 32" shape-rendering="crispEdges">
<metadata>Made with Pixels to Svg https://codepen.io/shshaw/pen/XbxvNj</metadata>
<path stroke="#571c27" d="M16 7h5M15 8h1M21 8h1M14 9h1M22 9h1M13 10h1M23 10h1M13 11h1M23 11h1M26 11h2M13 12h1M18 12h1M24 12h2M27 12h1M13 13h1M17 13h3M24 13h1M26 13h1M13 14h1M17 14h3M26 14h1M14 15h1M19 15h1M26 15h1M15 16h1M20 16h1M25 16h1M16 17h2M20 17h1M24 17h1M18 18h6" />
<path stroke="#03193f" d="M12 8h3M11 9h1M10 10h1M9 11h1M8 12h1M8 13h1M8 14h1M12 14h1M8 15h1M12 15h1M8 16h1M12 16h1M8 17h1M12 17h1M8 18h1M13 18h1M17 18h1M9 19h1M14 19h4M23 19h1M10 20h1M22 20h1M11 21h1M21 21h1M12 22h1M20 22h1M13 23h7" />
<path stroke="#f5a097" d="M16 8h1M19 8h2M15 9h2M18 9h3M15 10h2M18 10h2M16 11h2M19 11h1M21 11h2M20 12h3M26 12h1M20 13h4M25 13h1M20 14h4M25 14h1M21 15h1M23 15h1M21 16h2M22 17h1" />
<path stroke="#e86a73" d="M17 8h2M17 9h1M21 9h1M14 10h1M17 10h1M20 10h3M15 11h1M18 11h1M20 11h1M14 12h1M23 12h1M14 13h3M15 14h2M16 15h2M20 15h1M25 15h1M24 16h1M21 17h1" />
<path stroke="#0098dc" d="M12 9h1M11 10h2M11 11h2M11 17h1M11 18h1M12 19h1M21 19h2M13 20h2M20 20h2M20 21h1" />
<path stroke="#0069aa" d="M13 9h1M10 11h1M9 12h4M9 13h2M9 14h1M11 14h1M9 15h3M9 16h3M9 17h2M9 18h2M12 18h1M10 19h2M13 19h1M19 19h2M11 20h2M15 20h2M18 20h2M12 21h4M17 21h3M13 22h7" />
<path stroke="#ad2b34" d="M14 11h1M15 12h3M19 12h1M14 14h1M24 14h1M15 15h1M18 15h1M24 15h1M16 16h4M23 16h1M18 17h2M23 17h1" />
<path stroke="#00396d" d="M11 13h2M10 14h1M18 19h1M17 20h1M16 21h1" />
<path stroke="#1a1932" d="M22 15h1" />
</svg>