<svg xmlns="http://www.w3.org/2000/svg" viewBox="0 -0.5 32 32" shape-rendering="crispEdges">
<metadata>Made with Pixels to Svg https://codepen.io/shshaw/pen/XbxvNj</metadata>
<path stroke="#1c121c" d="M8 11h4M20 11h4M8 12h1M12 12h1M19 12h1M23 12h1M8 13h1M13 13h2M17 13h2M23 13h1M8 14h1M14 14h1M17 14h1M23 14h1M6 15h2M14 15h1M17 15h1M24 15h2M5 16h1M14 16h1M17 16h1M26 16h1M4 17h1M14 17h1M17 17h1M27 17h1M4 18h1M14 18h1M17 18h1M27 18h1M4 19h1M12 19h1M14 19h1M17 19h1M19 19h1M27 19h1M4 20h1M6 20h1M8 20h1M10 20h5M17 20h5M23 20h1M25 20h1M27 20h1M4 21h7M21 21h7" />
<path stroke="#a08662" d="M9 12h1M22 12h1M12 13h1M19 13h1M13 14h1M18 14h1M10 15h1M21 15h1M7 16h2M20 16h1M23 16h2M13 17h1M18 17h1M10 18h4M18 18h4M5 19h6M21 19h6" />
<path stroke="#c7b08b" d="M10 12h2M20 12h2M9 13h3M20 13h3M9 14h4M19 14h4M12 15h2M18 15h2M11 16h3M18 16h2M5 17h8M19 17h8M5 18h5M22 18h5" />
<path stroke="#796755" d="M8 15h2M11 15h1M20 15h1M22 15h2M6 16h1M9 16h2M21 16h2M25 16h1" />
<path stroke="#92a1b9" d="M11 19h1M13 19h1M18 19h1M20 19h1" />
<path stroke="#c7cfdd" d="M5 20h1M7 20h1M9 20h1M22 20h1M24 20h1M26 20h1" />
</svg>