<svg xmlns="http://www.w3.org/2000/svg" viewBox="0 -0.5 32 32" shape-rendering="crispEdges">
<metadata>Made with Pixels to Svg https://codepen.io/shshaw/pen/XbxvNj</metadata>
<path stroke="#1c121c" d="M17 7h3M12 8h5M20 8h1M11 9h1M21 9h1M10 10h1M22 10h1M9 11h1M23 11h1M8 12h1M24 12h1M8 13h1M13 13h1M24 13h1M8 14h1M12 14h1M14 14h1M24 14h1M8 15h1M12 15h1M15 15h1M23 15h1M8 16h1M12 16h1M16 16h1M23 16h1M8 17h1M12 17h1M17 17h1M23 17h1M8 18h1M13 18h1M17 18h1M23 18h1M9 19h1M14 19h4M23 19h1M10 20h1M22 20h1M11 21h1M21 21h1M12 22h1M20 22h1M13 23h7" />
<path stroke="#c959c0" d="M17 8h3M16 9h1M20 9h1M15 10h1M17 10h3M21 10h1M15 11h1M17 11h1M19 11h2M22 11h1M15 12h1M20 12h2M23 12h1M16 13h1M18 13h1M21 13h1M23 13h1M17 14h1M20 14h2M23 14h1M18 15h1M22 15h1M19 16h3" />
<path stroke="#657392" d="M12 9h3M11 10h3M11 11h2M11 17h1M22 17h1M11 18h1M21 18h2M12 19h1M20 19h3M13 20h2M20 20h2M20 21h1" />
<path stroke="#2a2f4e" d="M15 9h1M14 10h1M13 11h1M13 12h1M11 13h2M10 14h1M22 16h1M21 17h1M18 18h3M17 20h1M16 21h1" />
<path stroke="#793a80" d="M17 9h3M16 10h1M20 10h1M14 11h1M16 11h1M18 11h1M21 11h1M14 12h1M16 12h4M22 12h1M14 13h2M17 13h1M19 13h2M22 13h1M15 14h2M18 14h2M22 14h1M16 15h2M19 15h3M17 16h2M18 17h3" />
<path stroke="#424c6e" d="M10 11h1M9 12h4M9 13h2M9 14h1M11 14h1M9 15h3M9 16h3M9 17h2M9 18h2M12 18h1M10 19h2M13 19h1M18 19h2M11 20h2M15 20h2M18 20h2M12 21h4M17 21h3M13 22h7" />
</svg>