<svg xmlns="http://www.w3.org/2000/svg" viewBox="0 -0.5 32 32" shape-rendering="crispEdges">
<metadata>Made with Pixels to Svg https://codepen.io/shshaw/pen/XbxvNj</metadata>
<path stroke="#1c121c" d="M12 8h3M16 8h3M11 9h1M15 9h1M19 9h1M10 10h1M20 10h1M9 11h1M21 11h1M8 12h1M21 12h1M8 13h1M13 13h1M22 13h1M8 14h1M12 14h1M14 14h1M23 14h1M8 15h1M12 15h1M15 15h1M23 15h1M8 16h1M12 16h1M16 16h1M23 16h1M8 17h1M12 17h1M17 17h1M23 17h1M9 18h1M13 18h1M17 18h1M23 18h1M9 19h1M14 19h4M22 19h1M10 20h1M22 20h1M11 21h1M21 21h1M12 22h2M20 22h1M14 23h6" />
<path stroke="#8a4836" d="M12 9h1M10 11h1M13 11h1M17 11h1M10 12h2M9 13h2M15 13h1M18 13h1M21 13h1M9 14h1M22 14h1M20 15h1M11 16h1M17 16h1M21 16h1M10 17h2M19 17h1M10 18h2M20 18h1M11 19h2M19 19h1M11 20h5M21 20h1M13 21h2M19 21h2M18 22h2" />
<path stroke="#e69c69" d="M13 9h2M18 9h1M14 10h2M18 10h2M14 11h2M18 11h2M15 12h1M19 12h1M20 13h1M19 14h2M19 15h1M22 16h1M21 17h2M21 18h2M21 19h1" />
<path stroke="#5d2c28" d="M16 9h1M11 10h1M16 10h1M11 11h2M16 11h1M9 12h1M12 12h3M17 12h1M14 13h1M17 13h1M11 14h1M15 14h1M18 14h1M21 14h1M9 15h3M16 15h1M18 15h1M21 15h1M9 16h2M18 16h1M20 16h1M18 17h1M20 17h1M12 18h1M19 18h1M16 20h1M15 21h1M17 21h2M15 22h3" />
<path stroke="#bf6f4a" d="M17 9h1M12 10h2M17 10h1M20 11h1M16 12h1M18 12h1M20 12h1M16 13h1M19 13h1M16 14h2M17 15h1M22 15h1M19 16h1M20 19h1M19 20h2" />
<path stroke="#391f21" d="M11 13h2M10 14h1M9 17h1M18 18h1M10 19h1M13 19h1M18 19h1M17 20h2M12 21h1M16 21h1M14 22h1" />
</svg>