<svg xmlns="http://www.w3.org/2000/svg" viewBox="0 -0.5 32 32" shape-rendering="crispEdges">
<metadata>Made with Pixels to Svg https://codepen.io/shshaw/pen/XbxvNj</metadata>
<path stroke="#1a1932" d="M19 0h1M21 0h1M18 1h1M21 1h1M18 2h1M20 2h1M18 3h1M20 3h1M17 4h1M20 4h1M17 5h1M19 5h1M17 6h1M19 6h1M31 6h1M17 7h1M19 7h1M30 7h1M17 8h1M19 8h1M28 8h2M17 9h1M19 9h1M26 9h2M31 9h1M17 10h1M20 10h1M23 10h3M29 10h2M21 11h2M27 11h2M24 12h3M21 13h3" />
<path stroke="#92a1b9" d="M20 0h1M19 1h1M19 2h1M19 3h1M18 4h1M18 5h1M18 6h1M18 7h1M31 7h1M18 8h1M30 8h1M18 9h1M28 9h2M19 10h1M26 10h2M20 11h1M23 11h3M21 12h2" />
<path stroke="#657392" d="M20 1h1M19 4h1M31 8h1M30 9h1M18 10h1M28 10h1M19 11h1M26 11h1M20 12h1M23 12h1" />
<path stroke="#03193f" d="M16 11h3M15 12h1M19 12h1M14 13h1M20 13h1M14 14h1M20 14h1M13 15h2M20 15h1M12 16h1M19 16h1M11 17h1M16 17h3M11 18h1M16 18h1M10 19h1M15 19h1M9 20h1M13 20h2M9 21h1M12 21h1M8 22h1M10 22h2M8 23h2" />
<path stroke="#0098dc" d="M16 12h1M15 13h1M19 15h1M13 16h2M18 16h1M12 17h2M15 17h1M12 18h4M13 19h2M11 20h1" />
<path stroke="#00cdf9" d="M17 12h2M16 13h2M19 13h1M15 14h5M15 15h4M16 16h2M14 17h1" />
<path stroke="#0cf1ff" d="M18 13h1" />
<path stroke="#0069aa" d="M15 16h1M11 19h2M10 20h1M12 20h1M10 21h2M9 22h1" />
</svg>