<svg xmlns="http://www.w3.org/2000/svg" viewBox="0 -0.5 32 32" shape-rendering="crispEdges">
<metadata>Made with Pixels to Svg https://codepen.io/shshaw/pen/XbxvNj</metadata>
<path stroke="#322b28" d="M19 0h1M21 0h1M18 1h1M21 1h1M18 2h1M20 2h1M18 3h1M20 3h1M17 4h1M20 4h1M17 5h1M19 5h1M17 6h1M19 6h1M31 6h1M17 7h1M19 7h1M30 7h1M17 8h1M19 8h1M28 8h2M17 9h1M19 9h1M26 9h2M31 9h1M17 10h1M20 10h1M23 10h3M29 10h2M17 11h1M21 11h2M27 11h2M18 12h1M24 12h3M19 13h5" />
<path stroke="#a08662" d="M20 0h1M19 1h1M19 2h1M19 3h1M18 4h1M18 5h1M18 6h1M18 7h1M31 7h1M18 8h1M30 8h1M18 9h1M28 9h2M18 10h1M26 10h2M19 11h2M23 11h3M20 12h3" />
<path stroke="#796755" d="M20 1h1M19 4h1M31 8h1M30 9h1M19 10h1M28 10h1M18 11h1M26 11h1M19 12h1M23 12h1" />
<path stroke="#1c121c" d="M15 11h2M14 12h1M12 13h2M10 14h2M19 14h1M8 15h2M19 15h1M6 16h2M18 16h1M5 17h1M17 17h1M5 18h1M16 18h1M5 19h1M15 19h1M6 20h1M14 20h1M7 21h1M13 21h1M8 22h1M12 22h1M9 23h3" />
<path stroke="#dba463" d="M15 12h2M14 13h4M12 14h1M17 14h2M10 15h1M18 15h1M8 16h1M6 17h2M6 18h1M14 19h1M7 20h1M12 21h1M9 22h3" />
<path stroke="#bb7547" d="M17 12h1M18 13h1" />
<path stroke="#f4d29c" d="M13 14h4M11 15h7M9 16h9M8 17h9M7 18h2M10 18h6M9 19h5M8 20h2M11 20h3M10 21h2" />
<path stroke="#5a4e44" d="M9 18h1M6 19h3M10 20h1M8 21h2" />
</svg>