<svg xmlns="http://www.w3.org/2000/svg" viewBox="0 -0.5 32 32" shape-rendering="crispEdges">
<metadata>Made with Pixels to Svg https://codepen.io/shshaw/pen/XbxvNj</metadata>
<path stroke="#322b28" d="M19 0h1M21 0h1M18 1h1M21 1h1M18 2h1M20 2h1M18 3h1M20 3h1M17 4h1M20 4h1M17 5h1M19 5h1M17 6h1M19 6h1M31 6h1M17 7h1M19 7h1M30 7h1M17 8h1M19 8h1M28 8h2M17 9h1M19 9h1M26 9h2M31 9h1M17 10h1M20 10h1M23 10h3M29 10h2M18 11h1M21 11h2M27 11h2M19 12h1M24 12h3M20 13h4" />
<path stroke="#a08662" d="M20 0h1M19 1h1M19 2h1M19 3h1M18 4h1M18 5h1M18 6h1M18 7h1M31 7h1M18 8h1M30 8h1M18 9h1M28 9h2M18 10h1M26 10h2M19 11h2M23 11h3M20 12h3" />
<path stroke="#796755" d="M20 1h1M19 4h1M31 8h1M30 9h1M19 10h1M28 10h1M26 11h1M23 12h1" />
<path stroke="#1b1b1b" d="M11 8h2M10 9h1M13 9h2M9 10h1M15 10h2M9 11h1M10 12h1M13 12h6M11 13h2M16 13h1M19 13h1M15 14h1M19 14h1M21 14h1M11 15h4M18 15h2M22 15h1M10 16h1M17 16h1M19 16h1M22 16h1M9 17h1M16 17h1M19 17h1M23 17h1M9 18h1M16 18h1M18 18h1M24 18h1M9 19h1M16 19h1M18 19h1M24 19h1M9 20h1M16 20h1M18 20h1M24 20h1M10 21h1M15 21h1M19 21h1M23 21h1M11 22h4M20 22h3" />
<path stroke="#858585" d="M11 9h2M10 10h1M13 10h1M10 11h1M13 11h3M11 12h2M16 14h2M15 15h3M11 16h6M20 16h2M10 17h1M15 17h1M20 17h3M10 18h1M15 18h1M19 18h1M23 18h1M10 19h1M15 19h1M19 19h1M23 19h1M10 20h1M15 20h1M19 20h1M23 20h1M11 21h4M20 21h3" />
<path stroke="#3d3d3d" d="M11 10h2M11 11h2M12 17h2M11 18h4M21 18h2M11 19h4M20 19h3M12 20h2M20 20h2" />
<path stroke="#5d5d5d" d="M14 10h1M16 11h2M17 13h2M18 14h1M20 14h1M20 15h2M11 17h1M14 17h1M20 18h1M11 20h1M14 20h1M22 20h1" />
</svg>