<svg xmlns="http://www.w3.org/2000/svg" viewBox="0 -0.5 32 32" shape-rendering="crispEdges">
<metadata>Made with Pixels to Svg https://codepen.io/shshaw/pen/XbxvNj</metadata>
<path stroke="#322b28" d="M19 0h1M21 0h1M18 1h1M21 1h1M18 2h1M20 2h1M18 3h1M20 3h1M17 4h1M20 4h1M17 5h1M19 5h1M17 6h1M19 6h1M31 6h1M17 7h1M19 7h1M30 7h1M17 8h1M19 8h1M28 8h2M17 9h1M19 9h1M26 9h2M31 9h1M17 10h1M20 10h1M23 10h3M29 10h2M17 11h1M21 11h2M27 11h2M16 12h1M24 12h3M19 13h5M18 14h1" />
<path stroke="#a08662" d="M20 0h1M19 1h1M19 2h1M19 3h1M18 4h1M18 5h1M18 6h1M18 7h1M31 7h1M18 8h1M30 8h1M18 9h1M28 9h2M18 10h1M26 10h2M19 11h2M23 11h3M20 12h3" />
<path stroke="#796755" d="M20 1h1M19 4h1M31 8h1M30 9h1M19 10h1M28 10h1M18 11h1M26 11h1M17 12h3M23 12h1M17 13h2" />
<path stroke="#333941" d="M12 9h2M11 10h1M14 10h1M10 11h1M15 11h1M9 12h1M15 12h1M9 13h1M16 13h1M8 14h1M17 14h1M8 15h1M18 15h2M8 16h1M20 16h1M7 17h1M21 17h1M7 18h1M21 18h1M7 19h1M20 19h1M6 20h1M19 20h1M6 21h1M17 21h2M6 22h1M14 22h3M6 23h1M11 23h3M6 24h5" />
<path stroke="#8b93af" d="M12 10h1M12 11h1M12 12h1M13 13h1M13 14h1M16 17h2M18 18h3" />
<path stroke="#dae0ea" d="M13 10h1M11 11h1M13 11h1M11 12h1M14 12h1M10 13h2M14 13h1M11 14h2M15 14h1M9 15h4M16 15h1M9 16h5M17 16h2M10 17h5M19 17h2M8 18h9M8 19h12M9 20h7M17 20h1M7 21h6M14 21h2M7 22h3M11 22h2M7 23h3" />
<path stroke="#b3b9d1" d="M14 11h1M10 12h1M13 12h1M12 13h1M15 13h1M9 14h2M14 14h1M16 14h1M13 15h3M17 15h1M14 16h3M19 16h1M8 17h2M15 17h1M18 17h1M17 18h1M7 20h2M16 20h1M18 20h1M13 21h1M16 21h1M10 22h1M13 22h1M10 23h1" />
</svg>